# xmcd
#
# Track frame offsets:
# 150
# 13887
# 27753
# 40254
# 54225
# 67350
# 79665
# 91983
# 107922
# 119850
# 133074
# 143886
# 154719
# 175137
# 187959
# 203259
#
# Disc length: 2919 seconds
#
#
# Revision: 0
# Processed by: cddbd v1.5.1PL2 Copyright (c) Steve Scherf et al.
# Submitted via: FreeRIP 2.944 
#
DISCID=dc0b6510
DTITLE=Percy Sledge - Platinum
DYEAR=2000
DGENRE=Blues
TTITLE0=When a man loves a woman
TTITLE1=Warm and tender love
TTITLE2=It tears me up
TTITLE3=My special prayer
TTITLE4=Take time to know her
TTITLE5=Sudden stop
TTITLE6=My adorable one
TTITLE7=Walkin' in the sun
TTITLE8=Dock of the bay
TTITLE9=Cover me
TTITLE10=Thief in the night
TTITLE11=You're pouring water on a drowning man
TTITLE12=The good love
TTITLE13=Behind closed doors
TTITLE14=Out of left held
TTITLE15=Just out of reach
EXTD=
EXTT0=
EXTT1=
EXTT2=
EXTT3=
EXTT4=
EXTT5=
EXTT6=
EXTT7=
EXTT8=
EXTT9=
EXTT10=
EXTT11=
EXTT12=
EXTT13=
EXTT14=
EXTT15=
PLAYORDER=
